# xmcd
#
# Track frame offsets: 
#        150
#        12455
#        27464
#        44349
#        58067
#        70798
#        83202
#        96998
#        109346
#        122854
#        138358
#        148672
#        161894
#
# Disc length: 2398 seconds
#
# Revision: 0
# Processed by: cddbd v1.5.2PL0 Copyright (c) Steve Scherf et al.
# Submitted via: ExactAudioCopyFreeDBPlugin 1.0
#
DISCID=c1095c0d
DTITLE=Yoshie Sakamoto - Someday
DYEAR=2013
DGENRE=Country
TTITLE0=My Shoes Keep Walking Back To You
TTITLE1=Someday
TTITLE2=Till A Tear Becomes A Rose
TTITLE3=Here Comes My Baby Back Again
TTITLE4=If My Heart Had Windows
TTITLE5=Blue Kentucky Girl
TTITLE6=I'll Take Care Of You
TTITLE7=You Take Me For Granted
TTITLE8=Under Your Spell Again
TTITLE9=In The Garden
TTITLE10=You Ain't Woman Enough
TTITLE11=We Must Have Been Out Of Our Minds (duet with Takaaki Sakamot
TTITLE11=o)
TTITLE12=We'll Meet Again
EXTD=
EXTT0=
EXTT1=
EXTT2=
EXTT3=
EXTT4=
EXTT5=
EXTT6=
EXTT7=
EXTT8=
EXTT9=
EXTT10=
EXTT11=
EXTT12=
PLAYORDER=
